<?xml version="1.0" encoding="iso-8859-1"?>
<!-- Generator: Adobe Illustrator 19.0.0, SVG Export Plug-In . SVG Version: 6.00 Build 0)  -->
<svg version="1.1" id="Capa_1" xmlns="http://www.w3.org/2000/svg" xmlns:xlink="http://www.w3.org/1999/xlink" x="0px" y="0px"
	 viewBox="0 0 512.001 512.001" style="enable-background:new 0 0 512.001 512.001;" xml:space="preserve">
<g>
	<g>
		<path d="M494.367,419.422L375.789,300.845c-3.975-3.975-9.259-6.164-14.88-6.164c-3.242,0-6.362,0.75-9.193,2.129l-86.694-86.694
			l15.665-15.665c7.671-7.671,8.055-19.896,1.18-28.041l10.483-10.482l0.531,0.532c4.409,4.409,10.201,6.614,15.993,6.614
			s11.583-2.204,15.993-6.614l17.731-17.731c8.818-8.818,8.818-23.167,0-31.985l-55.658-55.66c-2.896-2.895-7.589-2.895-10.485,0
			c-2.895,2.895-2.895,7.589,0,10.484l55.658,55.658c3.038,3.037,3.038,7.98,0,11.017l-17.731,17.731
			c-3.037,3.037-7.979,3.037-11.016,0l-5.773-5.773l-94.356-94.355c-3.038-3.037-3.038-7.98,0-11.017l17.731-17.731
			c3.037-3.036,7.98-3.037,11.017,0l11.799,11.799c2.896,2.895,7.59,2.896,10.484,0c2.896-2.895,2.896-7.589,0.001-10.484
			L242.47,6.614c-8.82-8.819-23.169-8.818-31.987,0l-17.731,17.731c-8.818,8.818-8.818,23.167,0,31.985l0.531,0.531L182.804,67.34
			c-3.738-3.162-8.418-4.895-13.369-4.895c-5.544,0-10.754,2.159-14.674,6.078l-68.662,68.662
			c-7.671,7.672-8.055,19.897-1.18,28.041L74.437,175.71l-0.532-0.532c-8.817-8.817-23.166-8.817-31.985,0l-17.73,17.731
			c-4.272,4.272-6.625,9.952-6.625,15.993c0,6.041,2.352,11.721,6.624,15.992l100.128,100.128
			c4.409,4.409,10.201,6.614,15.994,6.614c5.792,0,11.583-2.205,15.993-6.614l17.731-17.731c8.818-8.818,8.818-23.167,0-31.985
			l-0.531-0.531l10.482-10.482c3.85,3.25,8.605,4.888,13.367,4.888c5.315,0,10.629-2.023,14.674-6.068l15.665-15.665l86.699,86.7
			c-3.801,7.842-2.472,17.566,4.029,24.067l118.578,118.578c4.102,4.102,9.491,6.153,14.88,6.153c5.388,0,10.777-2.051,14.88-6.153
			l27.61-27.61c3.974-3.975,6.163-9.259,6.163-14.88C500.53,428.681,498.341,423.397,494.367,419.422z M203.768,67.346
			l78.098,78.098l-10.42,10.419l-78.098-78.098L203.768,67.346z M163.549,296.808l-17.731,17.731c-3.036,3.038-7.979,3.039-11.017,0
			L34.672,214.41c-1.471-1.471-2.281-3.427-2.281-5.508s0.81-4.037,2.282-5.508l17.73-17.731c1.519-1.519,3.514-2.278,5.509-2.278
			c1.994,0,3.99,0.759,5.508,2.278L163.549,285.79C166.587,288.828,166.587,293.77,163.549,296.808z M163.019,264.291
			l-78.098-78.097l10.419-10.419l78.097,78.098L163.019,264.291z M201.541,252.629c-2.309,2.31-6.07,2.31-8.379,0l-96.579-96.58
			c-2.31-2.31-2.31-6.069,0-8.379l68.662-68.662c1.119-1.119,2.606-1.736,4.189-1.736c1.582,0,3.071,0.616,4.189,1.736
			l96.579,96.579c2.31,2.31,2.31,6.069,0,8.379L201.541,252.629z M238.176,236.963l8.181-8.182l8.181-8.181l85.868,85.867
			l-16.364,16.363L238.176,236.963z M483.882,438.698l-27.61,27.61c-2.424,2.424-6.369,2.422-8.791,0L328.904,347.73
			c-2.424-2.424-2.424-6.368,0-8.792l27.229-27.228l0.381-0.381c1.174-1.174,2.735-1.821,4.396-1.821
			c1.66,0,3.221,0.647,4.395,1.821l118.578,118.577C486.306,432.33,486.306,436.274,483.882,438.698z"/>
	</g>
</g>
<g>
	<g>
		<path d="M313.706,430.556H117.778c-4.095,0-7.413,3.319-7.413,7.413s3.319,7.413,7.413,7.413h195.929
			c14.769,0,26.785,12.015,26.785,26.785v25.006H26.297v-25.006c0-14.769,12.015-26.785,26.784-26.785h18.631
			c4.095,0,7.413-3.319,7.413-7.413s-3.319-7.413-7.413-7.413H53.08c-22.944,0-41.611,18.667-41.611,41.612v26.549
			c0,7.325,5.959,13.284,13.283,13.284h317.28c7.325,0,13.284-5.959,13.284-13.284v-26.549
			C355.318,449.222,336.651,430.556,313.706,430.556z"/>
	</g>
</g>
<g>
</g>
<g>
</g>
<g>
</g>
<g>
</g>
<g>
</g>
<g>
</g>
<g>
</g>
<g>
</g>
<g>
</g>
<g>
</g>
<g>
</g>
<g>
</g>
<g>
</g>
<g>
</g>
<g>
</g>
</svg>
